<mxfile host="Electron" agent="Mozilla/5.0 (Windows NT 10.0; Win64; x64) AppleWebKit/537.36 (KHTML, like Gecko) draw.io/26.2.2 Chrome/134.0.6998.178 Electron/35.1.2 Safari/537.36" version="26.2.2">
  <diagram id="R2lEEEUBdFMjLlhIrx00" name="Page-1">
    <mxGraphModel dx="3047" dy="2520" grid="0" gridSize="10" guides="1" tooltips="1" connect="1" arrows="1" fold="1" page="1" pageScale="1" pageWidth="850" pageHeight="1100" math="0" shadow="0" extFonts="Permanent Marker^https://fonts.googleapis.com/css?family=Permanent+Marker">
      <root>
        <mxCell id="0" />
        <mxCell id="1" parent="0" />
        <mxCell id="AQ1WNHMQCsCdP6xTWr6x-1" value="Users" style="swimlane;fontStyle=0;childLayout=stackLayout;horizontal=1;startSize=30;horizontalStack=0;resizeParent=1;resizeParentMax=0;resizeLast=0;collapsible=1;marginBottom=0;whiteSpace=wrap;html=1;" parent="1" vertex="1">
          <mxGeometry x="20" y="-10" width="140" height="415" as="geometry" />
        </mxCell>
        <mxCell id="AQ1WNHMQCsCdP6xTWr6x-2" value="&lt;div&gt;&lt;font style=&quot;font-size: 14px;&quot;&gt;Id&lt;/font&gt;&lt;/div&gt;&lt;div&gt;&lt;font style=&quot;font-size: 14px;&quot;&gt;&lt;br&gt;&lt;/font&gt;&lt;/div&gt;&lt;font style=&quot;font-size: 14px;&quot;&gt;Otchestvo&lt;br&gt;&lt;/font&gt;&lt;div&gt;&lt;font style=&quot;font-size: 14px;&quot;&gt;&lt;br&gt;&lt;/font&gt;&lt;/div&gt;&lt;div&gt;&lt;font style=&quot;font-size: 14px;&quot;&gt;Role&lt;br&gt;&lt;br&gt;&lt;/font&gt;&lt;/div&gt;&lt;div&gt;&lt;font style=&quot;font-size: 14px;&quot;&gt;IndividualNumber&lt;br&gt;&lt;br&gt;&lt;/font&gt;&lt;/div&gt;&lt;div&gt;&lt;font style=&quot;font-size: 14px;&quot;&gt;PasswordHash&lt;br&gt;&lt;br&gt;&lt;/font&gt;&lt;/div&gt;&lt;div&gt;&lt;font style=&quot;font-size: 14px;&quot;&gt;IdDepartment&lt;br&gt;&lt;br&gt;&lt;/font&gt;&lt;/div&gt;&lt;div&gt;&lt;font style=&quot;font-size: 14px;&quot;&gt;Name&lt;br&gt;&lt;br&gt;&lt;/font&gt;&lt;/div&gt;&lt;div&gt;&lt;font style=&quot;font-size: 14px;&quot;&gt;Telegram&lt;br&gt;&lt;br&gt;&lt;/font&gt;&lt;/div&gt;&lt;div&gt;&lt;font style=&quot;font-size: 14px;&quot;&gt;Mail&lt;br&gt;&lt;br&gt;&lt;/font&gt;&lt;/div&gt;&lt;div&gt;&lt;font style=&quot;font-size: 14px;&quot;&gt;Surname&lt;br&gt;&lt;br&gt;&lt;/font&gt;&lt;/div&gt;&lt;div&gt;&lt;font style=&quot;font-size: 14px;&quot;&gt;Photo&lt;/font&gt;&lt;/div&gt;" style="text;strokeColor=none;fillColor=none;align=left;verticalAlign=middle;spacingLeft=4;spacingRight=4;overflow=hidden;points=[[0,0.5],[1,0.5]];portConstraint=eastwest;rotatable=0;whiteSpace=wrap;html=1;" parent="AQ1WNHMQCsCdP6xTWr6x-1" vertex="1">
          <mxGeometry y="30" width="140" height="385" as="geometry" />
        </mxCell>
        <mxCell id="AQ1WNHMQCsCdP6xTWr6x-5" value="Departments" style="swimlane;fontStyle=0;childLayout=stackLayout;horizontal=1;startSize=30;horizontalStack=0;resizeParent=1;resizeParentMax=0;resizeLast=0;collapsible=1;marginBottom=0;whiteSpace=wrap;html=1;" parent="1" vertex="1">
          <mxGeometry x="48" y="638" width="150" height="120" as="geometry" />
        </mxCell>
        <mxCell id="AQ1WNHMQCsCdP6xTWr6x-6" value="Id&lt;div&gt;&lt;br&gt;&lt;/div&gt;" style="text;strokeColor=none;fillColor=none;align=left;verticalAlign=middle;spacingLeft=4;spacingRight=4;overflow=hidden;points=[[0,0.5],[1,0.5]];portConstraint=eastwest;rotatable=0;whiteSpace=wrap;html=1;" parent="AQ1WNHMQCsCdP6xTWr6x-5" vertex="1">
          <mxGeometry y="30" width="150" height="30" as="geometry" />
        </mxCell>
        <mxCell id="AQ1WNHMQCsCdP6xTWr6x-7" value="Name" style="text;strokeColor=none;fillColor=none;align=left;verticalAlign=middle;spacingLeft=4;spacingRight=4;overflow=hidden;points=[[0,0.5],[1,0.5]];portConstraint=eastwest;rotatable=0;whiteSpace=wrap;html=1;" parent="AQ1WNHMQCsCdP6xTWr6x-5" vertex="1">
          <mxGeometry y="60" width="150" height="30" as="geometry" />
        </mxCell>
        <mxCell id="AQ1WNHMQCsCdP6xTWr6x-8" value="IdBoss&lt;div&gt;&lt;br&gt;&lt;/div&gt;&lt;div&gt;&lt;br&gt;&lt;/div&gt;" style="text;strokeColor=none;fillColor=none;align=left;verticalAlign=middle;spacingLeft=4;spacingRight=4;overflow=hidden;points=[[0,0.5],[1,0.5]];portConstraint=eastwest;rotatable=0;whiteSpace=wrap;html=1;" parent="AQ1WNHMQCsCdP6xTWr6x-5" vertex="1">
          <mxGeometry y="90" width="150" height="30" as="geometry" />
        </mxCell>
        <mxCell id="AQ1WNHMQCsCdP6xTWr6x-9" value="Tasks" style="swimlane;fontStyle=0;childLayout=stackLayout;horizontal=1;startSize=30;horizontalStack=0;resizeParent=1;resizeParentMax=0;resizeLast=0;collapsible=1;marginBottom=0;whiteSpace=wrap;html=1;" parent="1" vertex="1">
          <mxGeometry x="255" y="410" width="140" height="250" as="geometry" />
        </mxCell>
        <mxCell id="AQ1WNHMQCsCdP6xTWr6x-10" value="&lt;div&gt;Id&lt;/div&gt;&lt;div&gt;&lt;br&gt;&lt;/div&gt;Name" style="text;strokeColor=none;fillColor=none;align=left;verticalAlign=middle;spacingLeft=4;spacingRight=4;overflow=hidden;points=[[0,0.5],[1,0.5]];portConstraint=eastwest;rotatable=0;whiteSpace=wrap;html=1;" parent="AQ1WNHMQCsCdP6xTWr6x-9" vertex="1">
          <mxGeometry y="30" width="140" height="70" as="geometry" />
        </mxCell>
        <mxCell id="AQ1WNHMQCsCdP6xTWr6x-11" value="IdBoss&lt;div&gt;&lt;br&gt;&lt;/div&gt;&lt;div&gt;IdAgragate&lt;/div&gt;&lt;div&gt;&lt;br&gt;&lt;/div&gt;&lt;div&gt;Description&lt;/div&gt;&lt;div&gt;&lt;br&gt;&lt;/div&gt;" style="text;strokeColor=none;fillColor=none;align=left;verticalAlign=middle;spacingLeft=4;spacingRight=4;overflow=hidden;points=[[0,0.5],[1,0.5]];portConstraint=eastwest;rotatable=0;whiteSpace=wrap;html=1;" parent="AQ1WNHMQCsCdP6xTWr6x-9" vertex="1">
          <mxGeometry y="100" width="140" height="80" as="geometry" />
        </mxCell>
        <mxCell id="AQ1WNHMQCsCdP6xTWr6x-12" value="Type&lt;div&gt;&lt;br&gt;&lt;/div&gt;&lt;div&gt;(idUser| idDepartment)&lt;/div&gt;" style="text;strokeColor=none;fillColor=none;align=left;verticalAlign=middle;spacingLeft=4;spacingRight=4;overflow=hidden;points=[[0,0.5],[1,0.5]];portConstraint=eastwest;rotatable=0;whiteSpace=wrap;html=1;" parent="AQ1WNHMQCsCdP6xTWr6x-9" vertex="1">
          <mxGeometry y="180" width="140" height="70" as="geometry" />
        </mxCell>
        <mxCell id="AQ1WNHMQCsCdP6xTWr6x-13" value="Request" style="swimlane;fontStyle=0;childLayout=stackLayout;horizontal=1;startSize=30;horizontalStack=0;resizeParent=1;resizeParentMax=0;resizeLast=0;collapsible=1;marginBottom=0;whiteSpace=wrap;html=1;" parent="1" vertex="1">
          <mxGeometry x="250" y="240" width="140" height="140" as="geometry" />
        </mxCell>
        <mxCell id="AQ1WNHMQCsCdP6xTWr6x-14" value="Id&lt;div&gt;&lt;br&gt;&lt;/div&gt;&lt;div&gt;IdUser&lt;/div&gt;" style="text;strokeColor=none;fillColor=none;align=left;verticalAlign=middle;spacingLeft=4;spacingRight=4;overflow=hidden;points=[[0,0.5],[1,0.5]];portConstraint=eastwest;rotatable=0;whiteSpace=wrap;html=1;" parent="AQ1WNHMQCsCdP6xTWr6x-13" vertex="1">
          <mxGeometry y="30" width="140" height="50" as="geometry" />
        </mxCell>
        <mxCell id="AQ1WNHMQCsCdP6xTWr6x-15" value="RequestType" style="text;strokeColor=none;fillColor=none;align=left;verticalAlign=middle;spacingLeft=4;spacingRight=4;overflow=hidden;points=[[0,0.5],[1,0.5]];portConstraint=eastwest;rotatable=0;whiteSpace=wrap;html=1;" parent="AQ1WNHMQCsCdP6xTWr6x-13" vertex="1">
          <mxGeometry y="80" width="140" height="30" as="geometry" />
        </mxCell>
        <mxCell id="AQ1WNHMQCsCdP6xTWr6x-16" value="Description" style="text;strokeColor=none;fillColor=none;align=left;verticalAlign=middle;spacingLeft=4;spacingRight=4;overflow=hidden;points=[[0,0.5],[1,0.5]];portConstraint=eastwest;rotatable=0;whiteSpace=wrap;html=1;" parent="AQ1WNHMQCsCdP6xTWr6x-13" vertex="1">
          <mxGeometry y="110" width="140" height="30" as="geometry" />
        </mxCell>
        <mxCell id="AQ1WNHMQCsCdP6xTWr6x-17" value="Resume`s" style="swimlane;fontStyle=0;childLayout=stackLayout;horizontal=1;startSize=30;horizontalStack=0;resizeParent=1;resizeParentMax=0;resizeLast=0;collapsible=1;marginBottom=0;whiteSpace=wrap;html=1;" parent="1" vertex="1">
          <mxGeometry x="265" y="-202" width="140" height="210" as="geometry" />
        </mxCell>
        <mxCell id="AQ1WNHMQCsCdP6xTWr6x-18" value="&lt;div&gt;Id&lt;/div&gt;&lt;div&gt;&lt;br&gt;&lt;/div&gt;idUser" style="text;strokeColor=none;fillColor=none;align=left;verticalAlign=middle;spacingLeft=4;spacingRight=4;overflow=hidden;points=[[0,0.5],[1,0.5]];portConstraint=eastwest;rotatable=0;whiteSpace=wrap;html=1;" parent="AQ1WNHMQCsCdP6xTWr6x-17" vertex="1">
          <mxGeometry y="30" width="140" height="60" as="geometry" />
        </mxCell>
        <mxCell id="AQ1WNHMQCsCdP6xTWr6x-19" value="DateStart" style="text;strokeColor=none;fillColor=none;align=left;verticalAlign=middle;spacingLeft=4;spacingRight=4;overflow=hidden;points=[[0,0.5],[1,0.5]];portConstraint=eastwest;rotatable=0;whiteSpace=wrap;html=1;" parent="AQ1WNHMQCsCdP6xTWr6x-17" vertex="1">
          <mxGeometry y="90" width="140" height="30" as="geometry" />
        </mxCell>
        <mxCell id="AQ1WNHMQCsCdP6xTWr6x-20" value="&lt;div&gt;&lt;span style=&quot;background-color: transparent; color: light-dark(rgb(0, 0, 0), rgb(255, 255, 255));&quot;&gt;workHistory&lt;/span&gt;&lt;/div&gt;&lt;div&gt;&lt;br&gt;&lt;/div&gt;&lt;div&gt;workHistoryOnCompany&lt;/div&gt;&lt;div&gt;&lt;br&gt;&lt;/div&gt;&lt;div&gt;List&amp;lt;Certificates&amp;gt;&lt;/div&gt;" style="text;strokeColor=none;fillColor=none;align=left;verticalAlign=middle;spacingLeft=4;spacingRight=4;overflow=hidden;points=[[0,0.5],[1,0.5]];portConstraint=eastwest;rotatable=0;whiteSpace=wrap;html=1;" parent="AQ1WNHMQCsCdP6xTWr6x-17" vertex="1">
          <mxGeometry y="120" width="140" height="90" as="geometry" />
        </mxCell>
        <mxCell id="AQ1WNHMQCsCdP6xTWr6x-21" value="Certificate" style="swimlane;fontStyle=0;childLayout=stackLayout;horizontal=1;startSize=30;horizontalStack=0;resizeParent=1;resizeParentMax=0;resizeLast=0;collapsible=1;marginBottom=0;whiteSpace=wrap;html=1;" parent="1" vertex="1">
          <mxGeometry x="646" y="-115" width="140" height="150" as="geometry" />
        </mxCell>
        <mxCell id="AQ1WNHMQCsCdP6xTWr6x-22" value="Id" style="text;strokeColor=none;fillColor=none;align=left;verticalAlign=middle;spacingLeft=4;spacingRight=4;overflow=hidden;points=[[0,0.5],[1,0.5]];portConstraint=eastwest;rotatable=0;whiteSpace=wrap;html=1;" parent="AQ1WNHMQCsCdP6xTWr6x-21" vertex="1">
          <mxGeometry y="30" width="140" height="30" as="geometry" />
        </mxCell>
        <mxCell id="AQ1WNHMQCsCdP6xTWr6x-23" value="Name" style="text;strokeColor=none;fillColor=none;align=left;verticalAlign=middle;spacingLeft=4;spacingRight=4;overflow=hidden;points=[[0,0.5],[1,0.5]];portConstraint=eastwest;rotatable=0;whiteSpace=wrap;html=1;" parent="AQ1WNHMQCsCdP6xTWr6x-21" vertex="1">
          <mxGeometry y="60" width="140" height="30" as="geometry" />
        </mxCell>
        <mxCell id="AQ1WNHMQCsCdP6xTWr6x-24" value="IdOrganization&lt;div&gt;&lt;br&gt;&lt;/div&gt;&lt;div&gt;Description&lt;/div&gt;" style="text;strokeColor=none;fillColor=none;align=left;verticalAlign=middle;spacingLeft=4;spacingRight=4;overflow=hidden;points=[[0,0.5],[1,0.5]];portConstraint=eastwest;rotatable=0;whiteSpace=wrap;html=1;" parent="AQ1WNHMQCsCdP6xTWr6x-21" vertex="1">
          <mxGeometry y="90" width="140" height="60" as="geometry" />
        </mxCell>
        <mxCell id="AQ1WNHMQCsCdP6xTWr6x-25" value="Agrigate`s" style="swimlane;fontStyle=0;childLayout=stackLayout;horizontal=1;startSize=30;horizontalStack=0;resizeParent=1;resizeParentMax=0;resizeLast=0;collapsible=1;marginBottom=0;whiteSpace=wrap;html=1;" parent="1" vertex="1">
          <mxGeometry x="470" y="270" width="140" height="110" as="geometry" />
        </mxCell>
        <mxCell id="AQ1WNHMQCsCdP6xTWr6x-26" value="Id&lt;div&gt;&lt;br&gt;&lt;/div&gt;&lt;div&gt;IdManufacturer&lt;/div&gt;&lt;div&gt;&lt;br&gt;&lt;/div&gt;" style="text;strokeColor=none;fillColor=none;align=left;verticalAlign=middle;spacingLeft=4;spacingRight=4;overflow=hidden;points=[[0,0.5],[1,0.5]];portConstraint=eastwest;rotatable=0;whiteSpace=wrap;html=1;" parent="AQ1WNHMQCsCdP6xTWr6x-25" vertex="1">
          <mxGeometry y="30" width="140" height="50" as="geometry" />
        </mxCell>
        <mxCell id="AQ1WNHMQCsCdP6xTWr6x-27" value="Name" style="text;strokeColor=none;fillColor=none;align=left;verticalAlign=middle;spacingLeft=4;spacingRight=4;overflow=hidden;points=[[0,0.5],[1,0.5]];portConstraint=eastwest;rotatable=0;whiteSpace=wrap;html=1;" parent="AQ1WNHMQCsCdP6xTWr6x-25" vertex="1">
          <mxGeometry y="80" width="140" height="30" as="geometry" />
        </mxCell>
        <mxCell id="AQ1WNHMQCsCdP6xTWr6x-29" value="Organization" style="swimlane;fontStyle=0;childLayout=stackLayout;horizontal=1;startSize=30;horizontalStack=0;resizeParent=1;resizeParentMax=0;resizeLast=0;collapsible=1;marginBottom=0;whiteSpace=wrap;html=1;" parent="1" vertex="1">
          <mxGeometry x="470" y="58" width="140" height="120" as="geometry" />
        </mxCell>
        <mxCell id="AQ1WNHMQCsCdP6xTWr6x-30" value="Id" style="text;strokeColor=none;fillColor=none;align=left;verticalAlign=middle;spacingLeft=4;spacingRight=4;overflow=hidden;points=[[0,0.5],[1,0.5]];portConstraint=eastwest;rotatable=0;whiteSpace=wrap;html=1;" parent="AQ1WNHMQCsCdP6xTWr6x-29" vertex="1">
          <mxGeometry y="30" width="140" height="30" as="geometry" />
        </mxCell>
        <mxCell id="AQ1WNHMQCsCdP6xTWr6x-31" value="Name" style="text;strokeColor=none;fillColor=none;align=left;verticalAlign=middle;spacingLeft=4;spacingRight=4;overflow=hidden;points=[[0,0.5],[1,0.5]];portConstraint=eastwest;rotatable=0;whiteSpace=wrap;html=1;" parent="AQ1WNHMQCsCdP6xTWr6x-29" vertex="1">
          <mxGeometry y="60" width="140" height="30" as="geometry" />
        </mxCell>
        <mxCell id="AQ1WNHMQCsCdP6xTWr6x-32" value="Weighty" style="text;strokeColor=none;fillColor=none;align=left;verticalAlign=middle;spacingLeft=4;spacingRight=4;overflow=hidden;points=[[0,0.5],[1,0.5]];portConstraint=eastwest;rotatable=0;whiteSpace=wrap;html=1;" parent="AQ1WNHMQCsCdP6xTWr6x-29" vertex="1">
          <mxGeometry y="90" width="140" height="30" as="geometry" />
        </mxCell>
        <mxCell id="AQ1WNHMQCsCdP6xTWr6x-33" value="Contracts" style="swimlane;fontStyle=0;childLayout=stackLayout;horizontal=1;startSize=30;horizontalStack=0;resizeParent=1;resizeParentMax=0;resizeLast=0;collapsible=1;marginBottom=0;whiteSpace=wrap;html=1;" parent="1" vertex="1">
          <mxGeometry x="672" y="202" width="140" height="200" as="geometry" />
        </mxCell>
        <mxCell id="AQ1WNHMQCsCdP6xTWr6x-34" value="Id" style="text;strokeColor=none;fillColor=none;align=left;verticalAlign=middle;spacingLeft=4;spacingRight=4;overflow=hidden;points=[[0,0.5],[1,0.5]];portConstraint=eastwest;rotatable=0;whiteSpace=wrap;html=1;" parent="AQ1WNHMQCsCdP6xTWr6x-33" vertex="1">
          <mxGeometry y="30" width="140" height="30" as="geometry" />
        </mxCell>
        <mxCell id="AQ1WNHMQCsCdP6xTWr6x-35" value="Name" style="text;strokeColor=none;fillColor=none;align=left;verticalAlign=middle;spacingLeft=4;spacingRight=4;overflow=hidden;points=[[0,0.5],[1,0.5]];portConstraint=eastwest;rotatable=0;whiteSpace=wrap;html=1;" parent="AQ1WNHMQCsCdP6xTWr6x-33" vertex="1">
          <mxGeometry y="60" width="140" height="30" as="geometry" />
        </mxCell>
        <mxCell id="AQ1WNHMQCsCdP6xTWr6x-36" value="IdManufactarer&lt;div&gt;&lt;br&gt;&lt;/div&gt;&lt;div&gt;DateStart&lt;/div&gt;&lt;div&gt;&lt;br&gt;&lt;/div&gt;&lt;div&gt;DateFinish&lt;/div&gt;&lt;div&gt;&lt;br&gt;&lt;/div&gt;&lt;div&gt;Description&lt;/div&gt;&lt;div&gt;&lt;br&gt;&lt;/div&gt;" style="text;strokeColor=none;fillColor=none;align=left;verticalAlign=middle;spacingLeft=4;spacingRight=4;overflow=hidden;points=[[0,0.5],[1,0.5]];portConstraint=eastwest;rotatable=0;whiteSpace=wrap;html=1;" parent="AQ1WNHMQCsCdP6xTWr6x-33" vertex="1">
          <mxGeometry y="90" width="140" height="110" as="geometry" />
        </mxCell>
        <mxCell id="xcedCbTGIofSEFLyVBVZ-3" value="" style="edgeStyle=orthogonalEdgeStyle;fontSize=12;html=1;endArrow=ERoneToMany;rounded=0;exitX=1.004;exitY=0.045;exitDx=0;exitDy=0;exitPerimeter=0;curved=1;entryX=0.005;entryY=0.844;entryDx=0;entryDy=0;entryPerimeter=0;" edge="1" parent="1" source="AQ1WNHMQCsCdP6xTWr6x-2" target="AQ1WNHMQCsCdP6xTWr6x-14">
          <mxGeometry width="100" height="100" relative="1" as="geometry">
            <mxPoint x="120" y="200" as="sourcePoint" />
            <mxPoint x="248" y="310" as="targetPoint" />
            <Array as="points">
              <mxPoint x="220" y="38" />
              <mxPoint x="220" y="312" />
            </Array>
          </mxGeometry>
        </mxCell>
        <mxCell id="xcedCbTGIofSEFLyVBVZ-4" value="" style="edgeStyle=orthogonalEdgeStyle;fontSize=12;html=1;endArrow=ERmandOne;startArrow=ERmandOne;rounded=0;entryX=-0.005;entryY=0.793;entryDx=0;entryDy=0;entryPerimeter=0;curved=1;exitX=0.999;exitY=0.027;exitDx=0;exitDy=0;exitPerimeter=0;" edge="1" parent="1" source="AQ1WNHMQCsCdP6xTWr6x-2" target="AQ1WNHMQCsCdP6xTWr6x-18">
          <mxGeometry width="100" height="100" relative="1" as="geometry">
            <mxPoint x="230" y="-20" as="sourcePoint" />
            <mxPoint x="260.14" y="-270" as="targetPoint" />
          </mxGeometry>
        </mxCell>
        <mxCell id="xcedCbTGIofSEFLyVBVZ-11" value="" style="edgeStyle=orthogonalEdgeStyle;fontSize=12;html=1;endArrow=ERoneToMany;rounded=0;exitX=0;exitY=0.5;exitDx=0;exitDy=0;entryX=0.996;entryY=0.533;entryDx=0;entryDy=0;entryPerimeter=0;curved=1;" edge="1" parent="1" source="AQ1WNHMQCsCdP6xTWr6x-6" target="AQ1WNHMQCsCdP6xTWr6x-2">
          <mxGeometry width="100" height="100" relative="1" as="geometry">
            <mxPoint x="310" y="230" as="sourcePoint" />
            <mxPoint x="160" y="237" as="targetPoint" />
            <Array as="points">
              <mxPoint x="20" y="665" />
              <mxPoint x="20" y="535" />
              <mxPoint x="200" y="535" />
              <mxPoint x="200" y="233" />
            </Array>
          </mxGeometry>
        </mxCell>
        <mxCell id="xcedCbTGIofSEFLyVBVZ-14" value="" style="edgeStyle=orthogonalEdgeStyle;fontSize=12;html=1;endArrow=ERoneToMany;rounded=0;entryX=-0.001;entryY=0.603;entryDx=0;entryDy=0;entryPerimeter=0;curved=1;exitX=0.992;exitY=0.06;exitDx=0;exitDy=0;exitPerimeter=0;" edge="1" parent="1" source="AQ1WNHMQCsCdP6xTWr6x-2" target="AQ1WNHMQCsCdP6xTWr6x-12">
          <mxGeometry width="100" height="100" relative="1" as="geometry">
            <mxPoint x="160" y="40" as="sourcePoint" />
            <mxPoint x="370" y="130" as="targetPoint" />
            <Array as="points">
              <mxPoint x="208" y="44" />
              <mxPoint x="208" y="632" />
            </Array>
          </mxGeometry>
        </mxCell>
        <mxCell id="xcedCbTGIofSEFLyVBVZ-17" value="" style="edgeStyle=orthogonalEdgeStyle;fontSize=12;html=1;endArrow=ERoneToMany;rounded=0;exitX=0.993;exitY=0.24;exitDx=0;exitDy=0;exitPerimeter=0;entryX=1;entryY=0.5;entryDx=0;entryDy=0;curved=1;" edge="1" parent="1" source="AQ1WNHMQCsCdP6xTWr6x-26" target="AQ1WNHMQCsCdP6xTWr6x-11">
          <mxGeometry width="100" height="100" relative="1" as="geometry">
            <mxPoint x="360" y="230" as="sourcePoint" />
            <mxPoint x="460" y="130" as="targetPoint" />
            <Array as="points">
              <mxPoint x="609" y="325" />
              <mxPoint x="625" y="325" />
              <mxPoint x="625" y="550" />
            </Array>
          </mxGeometry>
        </mxCell>
        <mxCell id="xcedCbTGIofSEFLyVBVZ-28" value="" style="edgeStyle=orthogonalEdgeStyle;fontSize=12;html=1;endArrow=ERoneToMany;rounded=0;exitX=1;exitY=0.5;exitDx=0;exitDy=0;entryX=-0.001;entryY=0.859;entryDx=0;entryDy=0;entryPerimeter=0;curved=1;" edge="1" parent="1" source="AQ1WNHMQCsCdP6xTWr6x-6" target="AQ1WNHMQCsCdP6xTWr6x-12">
          <mxGeometry width="100" height="100" relative="1" as="geometry">
            <mxPoint x="450" y="430" as="sourcePoint" />
            <mxPoint x="550" y="330" as="targetPoint" />
          </mxGeometry>
        </mxCell>
        <mxCell id="xcedCbTGIofSEFLyVBVZ-29" value="Questions" style="swimlane;fontStyle=0;childLayout=stackLayout;horizontal=1;startSize=26;horizontalStack=0;resizeParent=1;resizeParentMax=0;resizeLast=0;collapsible=1;marginBottom=0;align=center;fontSize=14;" vertex="1" parent="1">
          <mxGeometry x="460" y="720" width="160" height="86" as="geometry" />
        </mxCell>
        <mxCell id="xcedCbTGIofSEFLyVBVZ-30" value="id" style="text;strokeColor=none;fillColor=none;spacingLeft=4;spacingRight=4;overflow=hidden;rotatable=0;points=[[0,0.5],[1,0.5]];portConstraint=eastwest;fontSize=12;whiteSpace=wrap;html=1;" vertex="1" parent="xcedCbTGIofSEFLyVBVZ-29">
          <mxGeometry y="26" width="160" height="30" as="geometry" />
        </mxCell>
        <mxCell id="xcedCbTGIofSEFLyVBVZ-31" value="string question" style="text;strokeColor=none;fillColor=none;spacingLeft=4;spacingRight=4;overflow=hidden;rotatable=0;points=[[0,0.5],[1,0.5]];portConstraint=eastwest;fontSize=12;whiteSpace=wrap;html=1;" vertex="1" parent="xcedCbTGIofSEFLyVBVZ-29">
          <mxGeometry y="56" width="160" height="30" as="geometry" />
        </mxCell>
        <mxCell id="xcedCbTGIofSEFLyVBVZ-33" value="Answers" style="swimlane;fontStyle=0;childLayout=stackLayout;horizontal=1;startSize=26;horizontalStack=0;resizeParent=1;resizeParentMax=0;resizeLast=0;collapsible=1;marginBottom=0;align=center;fontSize=14;" vertex="1" parent="1">
          <mxGeometry x="660" y="600" width="160" height="140" as="geometry" />
        </mxCell>
        <mxCell id="xcedCbTGIofSEFLyVBVZ-34" value="id" style="text;strokeColor=none;fillColor=none;spacingLeft=4;spacingRight=4;overflow=hidden;rotatable=0;points=[[0,0.5],[1,0.5]];portConstraint=eastwest;fontSize=12;whiteSpace=wrap;html=1;" vertex="1" parent="xcedCbTGIofSEFLyVBVZ-33">
          <mxGeometry y="26" width="160" height="30" as="geometry" />
        </mxCell>
        <mxCell id="xcedCbTGIofSEFLyVBVZ-35" value="IdQuestion" style="text;strokeColor=none;fillColor=none;spacingLeft=4;spacingRight=4;overflow=hidden;rotatable=0;points=[[0,0.5],[1,0.5]];portConstraint=eastwest;fontSize=12;whiteSpace=wrap;html=1;" vertex="1" parent="xcedCbTGIofSEFLyVBVZ-33">
          <mxGeometry y="56" width="160" height="30" as="geometry" />
        </mxCell>
        <mxCell id="xcedCbTGIofSEFLyVBVZ-36" value="string Answer&lt;div&gt;&lt;br&gt;&lt;/div&gt;&lt;div&gt;bool isTrue?&lt;/div&gt;" style="text;strokeColor=none;fillColor=none;spacingLeft=4;spacingRight=4;overflow=hidden;rotatable=0;points=[[0,0.5],[1,0.5]];portConstraint=eastwest;fontSize=12;whiteSpace=wrap;html=1;" vertex="1" parent="xcedCbTGIofSEFLyVBVZ-33">
          <mxGeometry y="86" width="160" height="54" as="geometry" />
        </mxCell>
        <mxCell id="xcedCbTGIofSEFLyVBVZ-37" value="" style="edgeStyle=orthogonalEdgeStyle;fontSize=12;html=1;endArrow=ERoneToMany;rounded=0;exitX=1;exitY=0.5;exitDx=0;exitDy=0;entryX=0;entryY=0.5;entryDx=0;entryDy=0;curved=1;" edge="1" parent="1" source="xcedCbTGIofSEFLyVBVZ-30" target="xcedCbTGIofSEFLyVBVZ-35">
          <mxGeometry width="100" height="100" relative="1" as="geometry">
            <mxPoint x="480" y="680" as="sourcePoint" />
            <mxPoint x="580" y="580" as="targetPoint" />
          </mxGeometry>
        </mxCell>
        <mxCell id="xcedCbTGIofSEFLyVBVZ-38" value="Tests" style="swimlane;fontStyle=0;childLayout=stackLayout;horizontal=1;startSize=26;horizontalStack=0;resizeParent=1;resizeParentMax=0;resizeLast=0;collapsible=1;marginBottom=0;align=center;fontSize=14;" vertex="1" parent="1">
          <mxGeometry x="245" y="710" width="160" height="150" as="geometry" />
        </mxCell>
        <mxCell id="xcedCbTGIofSEFLyVBVZ-39" value="id&lt;div&gt;&lt;br&gt;&lt;/div&gt;" style="text;strokeColor=none;fillColor=none;spacingLeft=4;spacingRight=4;overflow=hidden;rotatable=0;points=[[0,0.5],[1,0.5]];portConstraint=eastwest;fontSize=12;whiteSpace=wrap;html=1;" vertex="1" parent="xcedCbTGIofSEFLyVBVZ-38">
          <mxGeometry y="26" width="160" height="30" as="geometry" />
        </mxCell>
        <mxCell id="xcedCbTGIofSEFLyVBVZ-41" value="&lt;div&gt;IdDepartment&lt;/div&gt;&lt;div&gt;&lt;br&gt;&lt;/div&gt;&lt;div&gt;Name&lt;/div&gt;" style="text;strokeColor=none;fillColor=none;spacingLeft=4;spacingRight=4;overflow=hidden;rotatable=0;points=[[0,0.5],[1,0.5]];portConstraint=eastwest;fontSize=12;whiteSpace=wrap;html=1;" vertex="1" parent="xcedCbTGIofSEFLyVBVZ-38">
          <mxGeometry y="56" width="160" height="64" as="geometry" />
        </mxCell>
        <mxCell id="xcedCbTGIofSEFLyVBVZ-40" value="List&amp;lt;idQuestion&amp;gt;" style="text;strokeColor=none;fillColor=none;spacingLeft=4;spacingRight=4;overflow=hidden;rotatable=0;points=[[0,0.5],[1,0.5]];portConstraint=eastwest;fontSize=12;whiteSpace=wrap;html=1;" vertex="1" parent="xcedCbTGIofSEFLyVBVZ-38">
          <mxGeometry y="120" width="160" height="30" as="geometry" />
        </mxCell>
        <mxCell id="xcedCbTGIofSEFLyVBVZ-45" value="" style="edgeStyle=orthogonalEdgeStyle;fontSize=12;html=1;endArrow=ERmany;startArrow=ERmany;rounded=0;exitX=1;exitY=0.5;exitDx=0;exitDy=0;entryX=0;entryY=0.5;entryDx=0;entryDy=0;curved=1;" edge="1" parent="1" source="xcedCbTGIofSEFLyVBVZ-40" target="xcedCbTGIofSEFLyVBVZ-31">
          <mxGeometry width="100" height="100" relative="1" as="geometry">
            <mxPoint x="450" y="780" as="sourcePoint" />
            <mxPoint x="550" y="680" as="targetPoint" />
          </mxGeometry>
        </mxCell>
        <mxCell id="xcedCbTGIofSEFLyVBVZ-46" value="" style="fontSize=12;html=1;endArrow=ERmandOne;startArrow=ERmandOne;rounded=0;" edge="1" parent="1">
          <mxGeometry width="100" height="100" relative="1" as="geometry">
            <mxPoint x="77" y="-366" as="sourcePoint" />
            <mxPoint x="191" y="-366" as="targetPoint" />
            <Array as="points">
              <mxPoint x="133" y="-366" />
              <mxPoint x="162" y="-366" />
            </Array>
          </mxGeometry>
        </mxCell>
        <mxCell id="xcedCbTGIofSEFLyVBVZ-47" value="" style="fontSize=12;html=1;endArrow=ERoneToMany;rounded=0;" edge="1" parent="1">
          <mxGeometry width="100" height="100" relative="1" as="geometry">
            <mxPoint x="77" y="-325" as="sourcePoint" />
            <mxPoint x="190" y="-325" as="targetPoint" />
          </mxGeometry>
        </mxCell>
        <mxCell id="xcedCbTGIofSEFLyVBVZ-48" value="" style="fontSize=12;html=1;endArrow=ERoneToMany;startArrow=ERoneToMany;rounded=0;" edge="1" parent="1">
          <mxGeometry width="100" height="100" relative="1" as="geometry">
            <mxPoint x="77" y="-286" as="sourcePoint" />
            <mxPoint x="190" y="-286" as="targetPoint" />
          </mxGeometry>
        </mxCell>
        <mxCell id="xcedCbTGIofSEFLyVBVZ-49" value="a)" style="text;html=1;align=center;verticalAlign=middle;resizable=0;points=[];autosize=1;strokeColor=none;fillColor=none;" vertex="1" parent="1">
          <mxGeometry x="45" y="-378" width="29" height="26" as="geometry" />
        </mxCell>
        <mxCell id="xcedCbTGIofSEFLyVBVZ-50" value="b)" style="text;html=1;align=center;verticalAlign=middle;resizable=0;points=[];autosize=1;strokeColor=none;fillColor=none;" vertex="1" parent="1">
          <mxGeometry x="45" y="-338" width="29" height="26" as="geometry" />
        </mxCell>
        <mxCell id="xcedCbTGIofSEFLyVBVZ-51" value="c)" style="text;html=1;align=center;verticalAlign=middle;resizable=0;points=[];autosize=1;strokeColor=none;fillColor=none;" vertex="1" parent="1">
          <mxGeometry x="44" y="-297" width="28" height="26" as="geometry" />
        </mxCell>
        <mxCell id="xcedCbTGIofSEFLyVBVZ-52" value="" style="edgeStyle=orthogonalEdgeStyle;fontSize=12;html=1;endArrow=ERmany;startArrow=ERmany;rounded=0;entryX=0;entryY=0.5;entryDx=0;entryDy=0;curved=1;exitX=1;exitY=0.844;exitDx=0;exitDy=0;exitPerimeter=0;" edge="1" parent="1" source="AQ1WNHMQCsCdP6xTWr6x-20" target="AQ1WNHMQCsCdP6xTWr6x-22">
          <mxGeometry width="100" height="100" relative="1" as="geometry">
            <mxPoint x="410" y="42" as="sourcePoint" />
            <mxPoint x="510" y="-58" as="targetPoint" />
          </mxGeometry>
        </mxCell>
        <mxCell id="xcedCbTGIofSEFLyVBVZ-53" value="" style="edgeStyle=orthogonalEdgeStyle;fontSize=12;html=1;endArrow=ERoneToMany;rounded=0;exitX=1;exitY=0.5;exitDx=0;exitDy=0;entryX=0;entryY=0.195;entryDx=0;entryDy=0;entryPerimeter=0;curved=1;" edge="1" parent="1" source="AQ1WNHMQCsCdP6xTWr6x-6" target="xcedCbTGIofSEFLyVBVZ-41">
          <mxGeometry width="100" height="100" relative="1" as="geometry">
            <mxPoint x="96" y="887" as="sourcePoint" />
            <mxPoint x="196" y="787" as="targetPoint" />
          </mxGeometry>
        </mxCell>
        <mxCell id="xcedCbTGIofSEFLyVBVZ-54" value="TestResults" style="swimlane;fontStyle=0;childLayout=stackLayout;horizontal=1;startSize=26;horizontalStack=0;resizeParent=1;resizeParentMax=0;resizeLast=0;collapsible=1;marginBottom=0;align=center;fontSize=14;" vertex="1" parent="1">
          <mxGeometry x="245" y="876" width="160" height="175" as="geometry" />
        </mxCell>
        <mxCell id="xcedCbTGIofSEFLyVBVZ-55" value="Id" style="text;strokeColor=none;fillColor=none;spacingLeft=4;spacingRight=4;overflow=hidden;rotatable=0;points=[[0,0.5],[1,0.5]];portConstraint=eastwest;fontSize=12;whiteSpace=wrap;html=1;" vertex="1" parent="xcedCbTGIofSEFLyVBVZ-54">
          <mxGeometry y="26" width="160" height="30" as="geometry" />
        </mxCell>
        <mxCell id="xcedCbTGIofSEFLyVBVZ-56" value="IdTest" style="text;strokeColor=none;fillColor=none;spacingLeft=4;spacingRight=4;overflow=hidden;rotatable=0;points=[[0,0.5],[1,0.5]];portConstraint=eastwest;fontSize=12;whiteSpace=wrap;html=1;" vertex="1" parent="xcedCbTGIofSEFLyVBVZ-54">
          <mxGeometry y="56" width="160" height="30" as="geometry" />
        </mxCell>
        <mxCell id="xcedCbTGIofSEFLyVBVZ-57" value="&lt;div&gt;IdUser&lt;/div&gt;&lt;div&gt;&lt;br&gt;&lt;/div&gt;MaxValue&lt;div&gt;&lt;br&gt;&lt;/div&gt;&lt;div&gt;UserValue&lt;/div&gt;" style="text;strokeColor=none;fillColor=none;spacingLeft=4;spacingRight=4;overflow=hidden;rotatable=0;points=[[0,0.5],[1,0.5]];portConstraint=eastwest;fontSize=12;whiteSpace=wrap;html=1;" vertex="1" parent="xcedCbTGIofSEFLyVBVZ-54">
          <mxGeometry y="86" width="160" height="89" as="geometry" />
        </mxCell>
        <mxCell id="xcedCbTGIofSEFLyVBVZ-58" value="" style="edgeStyle=orthogonalEdgeStyle;fontSize=12;html=1;endArrow=ERoneToMany;rounded=0;curved=1;exitX=0;exitY=0.5;exitDx=0;exitDy=0;entryX=0;entryY=0.5;entryDx=0;entryDy=0;" edge="1" parent="1" source="xcedCbTGIofSEFLyVBVZ-39" target="xcedCbTGIofSEFLyVBVZ-56">
          <mxGeometry width="100" height="100" relative="1" as="geometry">
            <mxPoint x="165" y="790" as="sourcePoint" />
            <mxPoint x="180" y="864" as="targetPoint" />
            <Array as="points">
              <mxPoint x="191" y="751" />
              <mxPoint x="191" y="947" />
            </Array>
          </mxGeometry>
        </mxCell>
        <mxCell id="xcedCbTGIofSEFLyVBVZ-59" value="" style="edgeStyle=orthogonalEdgeStyle;fontSize=12;html=1;endArrow=ERmandOne;startArrow=ERmandOne;rounded=0;entryX=0.016;entryY=0.157;entryDx=0;entryDy=0;entryPerimeter=0;exitX=0.009;exitY=0.034;exitDx=0;exitDy=0;exitPerimeter=0;curved=1;" edge="1" parent="1" source="AQ1WNHMQCsCdP6xTWr6x-2" target="xcedCbTGIofSEFLyVBVZ-57">
          <mxGeometry width="100" height="100" relative="1" as="geometry">
            <mxPoint x="51" y="1018" as="sourcePoint" />
            <mxPoint x="151" y="918" as="targetPoint" />
            <Array as="points">
              <mxPoint x="-57" y="34" />
              <mxPoint x="-57" y="976" />
            </Array>
          </mxGeometry>
        </mxCell>
        <mxCell id="xcedCbTGIofSEFLyVBVZ-60" value="" style="edgeStyle=orthogonalEdgeStyle;fontSize=12;html=1;endArrow=ERoneToMany;rounded=0;entryX=-0.025;entryY=0.269;entryDx=0;entryDy=0;entryPerimeter=0;curved=1;exitX=1;exitY=0.5;exitDx=0;exitDy=0;" edge="1" parent="1" source="AQ1WNHMQCsCdP6xTWr6x-30" target="AQ1WNHMQCsCdP6xTWr6x-24">
          <mxGeometry width="100" height="100" relative="1" as="geometry">
            <mxPoint x="575" y="103" as="sourcePoint" />
            <mxPoint x="675" y="3" as="targetPoint" />
          </mxGeometry>
        </mxCell>
        <mxCell id="xcedCbTGIofSEFLyVBVZ-61" value="" style="edgeStyle=orthogonalEdgeStyle;fontSize=12;html=1;endArrow=ERoneToMany;rounded=0;exitX=1;exitY=0.5;exitDx=0;exitDy=0;entryX=-0.004;entryY=0.087;entryDx=0;entryDy=0;entryPerimeter=0;curved=1;" edge="1" parent="1" source="AQ1WNHMQCsCdP6xTWr6x-30" target="AQ1WNHMQCsCdP6xTWr6x-36">
          <mxGeometry width="100" height="100" relative="1" as="geometry">
            <mxPoint x="592" y="248" as="sourcePoint" />
            <mxPoint x="692" y="148" as="targetPoint" />
          </mxGeometry>
        </mxCell>
        <mxCell id="xcedCbTGIofSEFLyVBVZ-63" value="" style="edgeStyle=orthogonalEdgeStyle;fontSize=12;html=1;endArrow=ERmany;rounded=0;entryX=-0.023;entryY=0.708;entryDx=0;entryDy=0;entryPerimeter=0;exitX=0;exitY=0.5;exitDx=0;exitDy=0;curved=1;" edge="1" parent="1" source="AQ1WNHMQCsCdP6xTWr6x-30" target="AQ1WNHMQCsCdP6xTWr6x-26">
          <mxGeometry width="100" height="100" relative="1" as="geometry">
            <mxPoint x="290" y="174" as="sourcePoint" />
            <mxPoint x="390" y="74" as="targetPoint" />
            <Array as="points">
              <mxPoint x="444" y="103" />
              <mxPoint x="444" y="209" />
              <mxPoint x="439" y="209" />
              <mxPoint x="439" y="335" />
            </Array>
          </mxGeometry>
        </mxCell>
        <mxCell id="xcedCbTGIofSEFLyVBVZ-64" value="" style="edgeStyle=orthogonalEdgeStyle;fontSize=12;html=1;endArrow=ERmandOne;startArrow=ERmandOne;rounded=0;entryX=0.005;entryY=0.085;entryDx=0;entryDy=0;entryPerimeter=0;exitX=0;exitY=0.5;exitDx=0;exitDy=0;curved=1;" edge="1" parent="1" source="AQ1WNHMQCsCdP6xTWr6x-8" target="AQ1WNHMQCsCdP6xTWr6x-2">
          <mxGeometry width="100" height="100" relative="1" as="geometry">
            <mxPoint x="-149" y="178" as="sourcePoint" />
            <mxPoint x="-49" y="78" as="targetPoint" />
            <Array as="points">
              <mxPoint x="-15" y="743" />
              <mxPoint x="-15" y="54" />
            </Array>
          </mxGeometry>
        </mxCell>
      </root>
    </mxGraphModel>
  </diagram>
</mxfile>
